G75*
G70*
%OFA0B0*%
%FSLAX24Y24*%
%IPPOS*%
%LPD*%
%AMOC8*
5,1,8,0,0,1.08239X$1,22.5*
%
%ADD10C,0.0160*%
%ADD11C,0.0110*%
%ADD12C,0.0050*%
%ADD13C,0.0060*%
%ADD14R,0.0250X0.1500*%
D10*
X000180Y000180D02*
X020330Y000180D01*
X020330Y020180D01*
X000180Y020180D01*
X000180Y000180D01*
X009480Y002580D02*
X009480Y005080D01*
X010230Y009530D02*
X007730Y009530D01*
X007730Y013380D02*
X010230Y013380D01*
X010980Y015230D02*
X010980Y017730D01*
D11*
X006001Y012326D02*
X005704Y012326D01*
X005556Y012177D01*
X005556Y011583D01*
X005704Y011435D01*
X006001Y011435D01*
X006150Y011583D01*
X006150Y012177D02*
X006001Y012326D01*
X005229Y012177D02*
X005080Y012326D01*
X004783Y012326D01*
X004635Y012177D01*
X004635Y011583D01*
X004783Y011435D01*
X005080Y011435D01*
X005229Y011583D01*
X005230Y009026D02*
X005230Y008135D01*
X004933Y008135D02*
X005527Y008135D01*
X005854Y008135D02*
X006002Y008135D01*
X006002Y008283D01*
X005854Y008283D01*
X005854Y008135D01*
X006314Y008283D02*
X006908Y008877D01*
X006908Y008283D01*
X006760Y008135D01*
X006463Y008135D01*
X006314Y008283D01*
X006314Y008877D01*
X006463Y009026D01*
X006760Y009026D01*
X006908Y008877D01*
X005230Y009026D02*
X004933Y008729D01*
X004606Y008432D02*
X004606Y009026D01*
X004012Y009026D02*
X004012Y008432D01*
X004309Y008135D01*
X004606Y008432D01*
D12*
X002524Y008605D02*
X000555Y008605D01*
X000555Y010967D01*
X002524Y010967D01*
X002524Y008605D01*
X002593Y011086D02*
X002595Y011104D01*
X002601Y011122D01*
X002610Y011138D01*
X002622Y011151D01*
X002637Y011162D01*
X002654Y011170D01*
X002672Y011174D01*
X002690Y011174D01*
X002708Y011170D01*
X002725Y011162D01*
X002740Y011151D01*
X002752Y011138D01*
X002761Y011122D01*
X002767Y011104D01*
X002769Y011086D01*
X002767Y011068D01*
X002761Y011050D01*
X002752Y011034D01*
X002740Y011021D01*
X002725Y011010D01*
X002708Y011002D01*
X002690Y010998D01*
X002672Y010998D01*
X002654Y011002D01*
X002637Y011010D01*
X002622Y011021D01*
X002610Y011034D01*
X002601Y011050D01*
X002595Y011068D01*
X002593Y011086D01*
X007730Y011130D02*
X007730Y013380D01*
X007730Y014130D01*
X008730Y015230D02*
X010980Y015230D01*
X011730Y015230D01*
X010230Y014130D02*
X010230Y013380D01*
X010230Y011130D01*
X010230Y010280D02*
X010230Y009530D01*
X010230Y007280D01*
X009480Y005080D02*
X008730Y005080D01*
X009480Y005080D02*
X011730Y005080D01*
X011730Y002580D02*
X009480Y002580D01*
X008730Y002580D01*
X007730Y007280D02*
X007730Y009530D01*
X007730Y010280D01*
X008730Y017730D02*
X010980Y017730D01*
X011730Y017730D01*
X017836Y012655D02*
X019805Y012655D01*
X019805Y010293D01*
X017836Y010293D01*
X017836Y012655D01*
X017591Y010174D02*
X017593Y010192D01*
X017599Y010210D01*
X017608Y010226D01*
X017620Y010239D01*
X017635Y010250D01*
X017652Y010258D01*
X017670Y010262D01*
X017688Y010262D01*
X017706Y010258D01*
X017723Y010250D01*
X017738Y010239D01*
X017750Y010226D01*
X017759Y010210D01*
X017765Y010192D01*
X017767Y010174D01*
X017765Y010156D01*
X017759Y010138D01*
X017750Y010122D01*
X017738Y010109D01*
X017723Y010098D01*
X017706Y010090D01*
X017688Y010086D01*
X017670Y010086D01*
X017652Y010090D01*
X017635Y010098D01*
X017620Y010109D01*
X017608Y010122D01*
X017599Y010138D01*
X017593Y010156D01*
X017591Y010174D01*
X017405Y009755D02*
X019767Y009755D01*
X019767Y007786D01*
X017405Y007786D01*
X017405Y009755D01*
X019798Y007629D02*
X019800Y007647D01*
X019806Y007665D01*
X019815Y007681D01*
X019827Y007694D01*
X019842Y007705D01*
X019859Y007713D01*
X019877Y007717D01*
X019895Y007717D01*
X019913Y007713D01*
X019930Y007705D01*
X019945Y007694D01*
X019957Y007681D01*
X019966Y007665D01*
X019972Y007647D01*
X019974Y007629D01*
X019972Y007611D01*
X019966Y007593D01*
X019957Y007577D01*
X019945Y007564D01*
X019930Y007553D01*
X019913Y007545D01*
X019895Y007541D01*
X019877Y007541D01*
X019859Y007545D01*
X019842Y007553D01*
X019827Y007564D01*
X019815Y007577D01*
X019806Y007593D01*
X019800Y007611D01*
X019798Y007629D01*
D13*
X019184Y007448D02*
X019184Y007155D01*
X019110Y007081D01*
X018890Y007081D01*
X018890Y007522D01*
X019110Y007522D01*
X019184Y007448D01*
X018723Y007522D02*
X018430Y007522D01*
X018430Y007081D01*
X018723Y007081D01*
X018577Y007301D02*
X018430Y007301D01*
X018263Y007081D02*
X017969Y007081D01*
X017969Y007522D01*
X016030Y004580D02*
X015780Y004580D01*
X015780Y003080D01*
X016030Y003080D01*
X016030Y003830D01*
X016030Y004580D01*
X016030Y003830D02*
X016480Y003830D01*
X012180Y003830D02*
X012184Y004002D01*
X012197Y004173D01*
X012218Y004344D01*
X012247Y004513D01*
X012285Y004680D01*
X012331Y004846D01*
X012385Y005009D01*
X012446Y005169D01*
X012516Y005326D01*
X012593Y005480D01*
X012678Y005629D01*
X012770Y005774D01*
X012869Y005915D01*
X012974Y006050D01*
X013087Y006180D01*
X013205Y006305D01*
X013330Y006423D01*
X013460Y006536D01*
X013595Y006641D01*
X013736Y006740D01*
X013881Y006832D01*
X014030Y006917D01*
X014184Y006994D01*
X014341Y007064D01*
X014501Y007125D01*
X014664Y007179D01*
X014830Y007225D01*
X014997Y007263D01*
X015166Y007292D01*
X015337Y007313D01*
X015508Y007326D01*
X015680Y007330D01*
X015852Y007326D01*
X016023Y007313D01*
X016194Y007292D01*
X016363Y007263D01*
X016530Y007225D01*
X016696Y007179D01*
X016859Y007125D01*
X017019Y007064D01*
X017176Y006994D01*
X017330Y006917D01*
X017479Y006832D01*
X017624Y006740D01*
X017765Y006641D01*
X017900Y006536D01*
X018030Y006423D01*
X018155Y006305D01*
X018273Y006180D01*
X018386Y006050D01*
X018491Y005915D01*
X018590Y005774D01*
X018682Y005629D01*
X018767Y005480D01*
X018844Y005326D01*
X018914Y005169D01*
X018975Y005009D01*
X019029Y004846D01*
X019075Y004680D01*
X019113Y004513D01*
X019142Y004344D01*
X019163Y004173D01*
X019176Y004002D01*
X019180Y003830D01*
X019176Y003658D01*
X019163Y003487D01*
X019142Y003316D01*
X019113Y003147D01*
X019075Y002980D01*
X019029Y002814D01*
X018975Y002651D01*
X018914Y002491D01*
X018844Y002334D01*
X018767Y002180D01*
X018682Y002031D01*
X018590Y001886D01*
X018491Y001745D01*
X018386Y001610D01*
X018273Y001480D01*
X018155Y001355D01*
X018030Y001237D01*
X017900Y001124D01*
X017765Y001019D01*
X017624Y000920D01*
X017479Y000828D01*
X017330Y000743D01*
X017176Y000666D01*
X017019Y000596D01*
X016859Y000535D01*
X016696Y000481D01*
X016530Y000435D01*
X016363Y000397D01*
X016194Y000368D01*
X016023Y000347D01*
X015852Y000334D01*
X015680Y000330D01*
X015508Y000334D01*
X015337Y000347D01*
X015166Y000368D01*
X014997Y000397D01*
X014830Y000435D01*
X014664Y000481D01*
X014501Y000535D01*
X014341Y000596D01*
X014184Y000666D01*
X014030Y000743D01*
X013881Y000828D01*
X013736Y000920D01*
X013595Y001019D01*
X013460Y001124D01*
X013330Y001237D01*
X013205Y001355D01*
X013087Y001480D01*
X012974Y001610D01*
X012869Y001745D01*
X012770Y001886D01*
X012678Y002031D01*
X012593Y002180D01*
X012516Y002334D01*
X012446Y002491D01*
X012385Y002651D01*
X012331Y002814D01*
X012285Y002980D01*
X012247Y003147D01*
X012218Y003316D01*
X012197Y003487D01*
X012184Y003658D01*
X012180Y003830D01*
X010950Y005339D02*
X010950Y005779D01*
X010730Y005559D01*
X011023Y005559D01*
X010563Y005412D02*
X010563Y005706D01*
X010490Y005779D01*
X010269Y005779D01*
X010269Y005339D01*
X010490Y005339D01*
X010563Y005412D01*
X010488Y006880D02*
X010488Y007100D01*
X010562Y007173D01*
X010855Y007173D01*
X010929Y007100D01*
X010929Y006880D01*
X010488Y006880D01*
X010635Y007340D02*
X010488Y007487D01*
X010929Y007487D01*
X010929Y007340D02*
X010929Y007634D01*
X012970Y009980D02*
X012970Y010200D01*
X013043Y010274D01*
X013190Y010274D01*
X013263Y010200D01*
X013263Y009980D01*
X013263Y010127D02*
X013410Y010274D01*
X013410Y010440D02*
X013410Y010734D01*
X013410Y010587D02*
X012970Y010587D01*
X013116Y010440D01*
X012970Y009980D02*
X013410Y009980D01*
X013790Y009400D02*
X013790Y011300D01*
X013740Y011350D01*
X013740Y011500D01*
X013742Y011517D01*
X013746Y011534D01*
X013753Y011550D01*
X013763Y011564D01*
X013776Y011577D01*
X013790Y011587D01*
X013806Y011594D01*
X013823Y011598D01*
X013840Y011600D01*
X014540Y011600D02*
X014557Y011598D01*
X014574Y011594D01*
X014590Y011587D01*
X014604Y011577D01*
X014617Y011564D01*
X014627Y011550D01*
X014634Y011534D01*
X014638Y011517D01*
X014640Y011500D01*
X014640Y011350D01*
X014590Y011300D01*
X014590Y009400D01*
X014640Y009350D01*
X014640Y009200D01*
X014638Y009183D01*
X014634Y009166D01*
X014627Y009150D01*
X014617Y009136D01*
X014604Y009123D01*
X014590Y009113D01*
X014574Y009106D01*
X014557Y009102D01*
X014540Y009100D01*
X013840Y009100D02*
X013823Y009102D01*
X013806Y009106D01*
X013790Y009113D01*
X013776Y009123D01*
X013763Y009136D01*
X013753Y009150D01*
X013746Y009166D01*
X013742Y009183D01*
X013740Y009200D01*
X013740Y009350D01*
X013790Y009400D01*
X011029Y011130D02*
X011029Y011350D01*
X010955Y011423D01*
X010662Y011423D01*
X010588Y011350D01*
X010588Y011130D01*
X011029Y011130D01*
X011029Y011590D02*
X010735Y011884D01*
X010662Y011884D01*
X010588Y011810D01*
X010588Y011664D01*
X010662Y011590D01*
X011029Y011590D02*
X011029Y011884D01*
X010410Y014531D02*
X010264Y014531D01*
X010190Y014605D01*
X010023Y014605D02*
X010023Y014898D01*
X009950Y014972D01*
X009730Y014972D01*
X009730Y014531D01*
X009950Y014531D01*
X010023Y014605D01*
X010190Y014898D02*
X010264Y014972D01*
X010410Y014972D01*
X010484Y014898D01*
X010484Y014825D01*
X010410Y014751D01*
X010484Y014678D01*
X010484Y014605D01*
X010410Y014531D01*
X010410Y014751D02*
X010337Y014751D01*
X012730Y016480D02*
X013330Y016480D01*
X013030Y016180D02*
X013030Y016780D01*
X014880Y016480D02*
X015330Y016480D01*
X015330Y015730D01*
X015580Y015730D01*
X015580Y017230D01*
X015330Y017230D01*
X015330Y016480D01*
X012180Y016480D02*
X012184Y016652D01*
X012197Y016823D01*
X012218Y016994D01*
X012247Y017163D01*
X012285Y017330D01*
X012331Y017496D01*
X012385Y017659D01*
X012446Y017819D01*
X012516Y017976D01*
X012593Y018130D01*
X012678Y018279D01*
X012770Y018424D01*
X012869Y018565D01*
X012974Y018700D01*
X013087Y018830D01*
X013205Y018955D01*
X013330Y019073D01*
X013460Y019186D01*
X013595Y019291D01*
X013736Y019390D01*
X013881Y019482D01*
X014030Y019567D01*
X014184Y019644D01*
X014341Y019714D01*
X014501Y019775D01*
X014664Y019829D01*
X014830Y019875D01*
X014997Y019913D01*
X015166Y019942D01*
X015337Y019963D01*
X015508Y019976D01*
X015680Y019980D01*
X015852Y019976D01*
X016023Y019963D01*
X016194Y019942D01*
X016363Y019913D01*
X016530Y019875D01*
X016696Y019829D01*
X016859Y019775D01*
X017019Y019714D01*
X017176Y019644D01*
X017330Y019567D01*
X017479Y019482D01*
X017624Y019390D01*
X017765Y019291D01*
X017900Y019186D01*
X018030Y019073D01*
X018155Y018955D01*
X018273Y018830D01*
X018386Y018700D01*
X018491Y018565D01*
X018590Y018424D01*
X018682Y018279D01*
X018767Y018130D01*
X018844Y017976D01*
X018914Y017819D01*
X018975Y017659D01*
X019029Y017496D01*
X019075Y017330D01*
X019113Y017163D01*
X019142Y016994D01*
X019163Y016823D01*
X019176Y016652D01*
X019180Y016480D01*
X019176Y016308D01*
X019163Y016137D01*
X019142Y015966D01*
X019113Y015797D01*
X019075Y015630D01*
X019029Y015464D01*
X018975Y015301D01*
X018914Y015141D01*
X018844Y014984D01*
X018767Y014830D01*
X018682Y014681D01*
X018590Y014536D01*
X018491Y014395D01*
X018386Y014260D01*
X018273Y014130D01*
X018155Y014005D01*
X018030Y013887D01*
X017900Y013774D01*
X017765Y013669D01*
X017624Y013570D01*
X017479Y013478D01*
X017330Y013393D01*
X017176Y013316D01*
X017019Y013246D01*
X016859Y013185D01*
X016696Y013131D01*
X016530Y013085D01*
X016363Y013047D01*
X016194Y013018D01*
X016023Y012997D01*
X015852Y012984D01*
X015680Y012980D01*
X015508Y012984D01*
X015337Y012997D01*
X015166Y013018D01*
X014997Y013047D01*
X014830Y013085D01*
X014664Y013131D01*
X014501Y013185D01*
X014341Y013246D01*
X014184Y013316D01*
X014030Y013393D01*
X013881Y013478D01*
X013736Y013570D01*
X013595Y013669D01*
X013460Y013774D01*
X013330Y013887D01*
X013205Y014005D01*
X013087Y014130D01*
X012974Y014260D01*
X012869Y014395D01*
X012770Y014536D01*
X012678Y014681D01*
X012593Y014830D01*
X012516Y014984D01*
X012446Y015141D01*
X012385Y015301D01*
X012331Y015464D01*
X012285Y015630D01*
X012247Y015797D01*
X012218Y015966D01*
X012197Y016137D01*
X012184Y016308D01*
X012180Y016480D01*
X012141Y018910D02*
X011994Y018910D01*
X011920Y018983D01*
X011754Y018983D02*
X011680Y018910D01*
X011533Y018910D01*
X011460Y018983D01*
X011460Y019277D01*
X011533Y019350D01*
X011680Y019350D01*
X011754Y019277D01*
X011920Y019277D02*
X011994Y019350D01*
X012141Y019350D01*
X012214Y019277D01*
X012214Y019204D01*
X012141Y019130D01*
X012214Y019057D01*
X012214Y018983D01*
X012141Y018910D01*
X012141Y019130D02*
X012067Y019130D01*
X008564Y019204D02*
X008564Y019277D01*
X008491Y019350D01*
X008344Y019350D01*
X008270Y019277D01*
X008104Y019277D02*
X008030Y019350D01*
X007883Y019350D01*
X007810Y019277D01*
X007810Y018983D01*
X007883Y018910D01*
X008030Y018910D01*
X008104Y018983D01*
X008270Y018910D02*
X008564Y019204D01*
X008564Y018910D02*
X008270Y018910D01*
X007280Y016780D02*
X007280Y016180D01*
X007580Y016480D02*
X006980Y016480D01*
X005430Y016480D02*
X004980Y016480D01*
X004980Y017230D01*
X004730Y017230D01*
X004730Y015730D01*
X004980Y015730D01*
X004980Y016480D01*
X001130Y016480D02*
X001134Y016652D01*
X001147Y016823D01*
X001168Y016994D01*
X001197Y017163D01*
X001235Y017330D01*
X001281Y017496D01*
X001335Y017659D01*
X001396Y017819D01*
X001466Y017976D01*
X001543Y018130D01*
X001628Y018279D01*
X001720Y018424D01*
X001819Y018565D01*
X001924Y018700D01*
X002037Y018830D01*
X002155Y018955D01*
X002280Y019073D01*
X002410Y019186D01*
X002545Y019291D01*
X002686Y019390D01*
X002831Y019482D01*
X002980Y019567D01*
X003134Y019644D01*
X003291Y019714D01*
X003451Y019775D01*
X003614Y019829D01*
X003780Y019875D01*
X003947Y019913D01*
X004116Y019942D01*
X004287Y019963D01*
X004458Y019976D01*
X004630Y019980D01*
X004802Y019976D01*
X004973Y019963D01*
X005144Y019942D01*
X005313Y019913D01*
X005480Y019875D01*
X005646Y019829D01*
X005809Y019775D01*
X005969Y019714D01*
X006126Y019644D01*
X006280Y019567D01*
X006429Y019482D01*
X006574Y019390D01*
X006715Y019291D01*
X006850Y019186D01*
X006980Y019073D01*
X007105Y018955D01*
X007223Y018830D01*
X007336Y018700D01*
X007441Y018565D01*
X007540Y018424D01*
X007632Y018279D01*
X007717Y018130D01*
X007794Y017976D01*
X007864Y017819D01*
X007925Y017659D01*
X007979Y017496D01*
X008025Y017330D01*
X008063Y017163D01*
X008092Y016994D01*
X008113Y016823D01*
X008126Y016652D01*
X008130Y016480D01*
X008126Y016308D01*
X008113Y016137D01*
X008092Y015966D01*
X008063Y015797D01*
X008025Y015630D01*
X007979Y015464D01*
X007925Y015301D01*
X007864Y015141D01*
X007794Y014984D01*
X007717Y014830D01*
X007632Y014681D01*
X007540Y014536D01*
X007441Y014395D01*
X007336Y014260D01*
X007223Y014130D01*
X007105Y014005D01*
X006980Y013887D01*
X006850Y013774D01*
X006715Y013669D01*
X006574Y013570D01*
X006429Y013478D01*
X006280Y013393D01*
X006126Y013316D01*
X005969Y013246D01*
X005809Y013185D01*
X005646Y013131D01*
X005480Y013085D01*
X005313Y013047D01*
X005144Y013018D01*
X004973Y012997D01*
X004802Y012984D01*
X004630Y012980D01*
X004458Y012984D01*
X004287Y012997D01*
X004116Y013018D01*
X003947Y013047D01*
X003780Y013085D01*
X003614Y013131D01*
X003451Y013185D01*
X003291Y013246D01*
X003134Y013316D01*
X002980Y013393D01*
X002831Y013478D01*
X002686Y013570D01*
X002545Y013669D01*
X002410Y013774D01*
X002280Y013887D01*
X002155Y014005D01*
X002037Y014130D01*
X001924Y014260D01*
X001819Y014395D01*
X001720Y014536D01*
X001628Y014681D01*
X001543Y014830D01*
X001466Y014984D01*
X001396Y015141D01*
X001335Y015301D01*
X001281Y015464D01*
X001235Y015630D01*
X001197Y015797D01*
X001168Y015966D01*
X001147Y016137D01*
X001134Y016308D01*
X001130Y016480D01*
X003830Y016480D02*
X004380Y016480D01*
X002484Y011622D02*
X002190Y011622D01*
X002337Y011622D02*
X002337Y011181D01*
X002023Y011255D02*
X001950Y011181D01*
X001803Y011181D01*
X001730Y011255D01*
X001730Y011622D01*
X001563Y011548D02*
X001563Y011401D01*
X001490Y011328D01*
X001269Y011328D01*
X001269Y011181D02*
X001269Y011622D01*
X001490Y011622D01*
X001563Y011548D01*
X002023Y011622D02*
X002023Y011255D01*
X001103Y011181D02*
X001103Y011622D01*
X000809Y011622D02*
X001103Y011181D01*
X000809Y011181D02*
X000809Y011622D01*
X000649Y011622D02*
X000502Y011622D01*
X000575Y011622D02*
X000575Y011181D01*
X000502Y011181D02*
X000649Y011181D01*
X004280Y004580D02*
X004530Y004580D01*
X004530Y003080D01*
X004280Y003080D01*
X004280Y003830D01*
X004280Y004580D01*
X004280Y003830D02*
X003830Y003830D01*
X001130Y003830D02*
X001134Y004002D01*
X001147Y004173D01*
X001168Y004344D01*
X001197Y004513D01*
X001235Y004680D01*
X001281Y004846D01*
X001335Y005009D01*
X001396Y005169D01*
X001466Y005326D01*
X001543Y005480D01*
X001628Y005629D01*
X001720Y005774D01*
X001819Y005915D01*
X001924Y006050D01*
X002037Y006180D01*
X002155Y006305D01*
X002280Y006423D01*
X002410Y006536D01*
X002545Y006641D01*
X002686Y006740D01*
X002831Y006832D01*
X002980Y006917D01*
X003134Y006994D01*
X003291Y007064D01*
X003451Y007125D01*
X003614Y007179D01*
X003780Y007225D01*
X003947Y007263D01*
X004116Y007292D01*
X004287Y007313D01*
X004458Y007326D01*
X004630Y007330D01*
X004802Y007326D01*
X004973Y007313D01*
X005144Y007292D01*
X005313Y007263D01*
X005480Y007225D01*
X005646Y007179D01*
X005809Y007125D01*
X005969Y007064D01*
X006126Y006994D01*
X006280Y006917D01*
X006429Y006832D01*
X006574Y006740D01*
X006715Y006641D01*
X006850Y006536D01*
X006980Y006423D01*
X007105Y006305D01*
X007223Y006180D01*
X007336Y006050D01*
X007441Y005915D01*
X007540Y005774D01*
X007632Y005629D01*
X007717Y005480D01*
X007794Y005326D01*
X007864Y005169D01*
X007925Y005009D01*
X007979Y004846D01*
X008025Y004680D01*
X008063Y004513D01*
X008092Y004344D01*
X008113Y004173D01*
X008126Y004002D01*
X008130Y003830D01*
X008126Y003658D01*
X008113Y003487D01*
X008092Y003316D01*
X008063Y003147D01*
X008025Y002980D01*
X007979Y002814D01*
X007925Y002651D01*
X007864Y002491D01*
X007794Y002334D01*
X007717Y002180D01*
X007632Y002031D01*
X007540Y001886D01*
X007441Y001745D01*
X007336Y001610D01*
X007223Y001480D01*
X007105Y001355D01*
X006980Y001237D01*
X006850Y001124D01*
X006715Y001019D01*
X006574Y000920D01*
X006429Y000828D01*
X006280Y000743D01*
X006126Y000666D01*
X005969Y000596D01*
X005809Y000535D01*
X005646Y000481D01*
X005480Y000435D01*
X005313Y000397D01*
X005144Y000368D01*
X004973Y000347D01*
X004802Y000334D01*
X004630Y000330D01*
X004458Y000334D01*
X004287Y000347D01*
X004116Y000368D01*
X003947Y000397D01*
X003780Y000435D01*
X003614Y000481D01*
X003451Y000535D01*
X003291Y000596D01*
X003134Y000666D01*
X002980Y000743D01*
X002831Y000828D01*
X002686Y000920D01*
X002545Y001019D01*
X002410Y001124D01*
X002280Y001237D01*
X002155Y001355D01*
X002037Y001480D01*
X001924Y001610D01*
X001819Y001745D01*
X001720Y001886D01*
X001628Y002031D01*
X001543Y002180D01*
X001466Y002334D01*
X001396Y002491D01*
X001335Y002651D01*
X001281Y002814D01*
X001235Y002980D01*
X001197Y003147D01*
X001168Y003316D01*
X001147Y003487D01*
X001134Y003658D01*
X001130Y003830D01*
X001680Y003830D02*
X002280Y003830D01*
X001980Y003530D02*
X001980Y004130D01*
X004880Y003830D02*
X005430Y003830D01*
X008010Y001577D02*
X008010Y001283D01*
X008083Y001210D01*
X008230Y001210D01*
X008304Y001283D01*
X008470Y001210D02*
X008764Y001210D01*
X008617Y001210D02*
X008617Y001650D01*
X008470Y001504D01*
X008304Y001577D02*
X008230Y001650D01*
X008083Y001650D01*
X008010Y001577D01*
X011460Y001577D02*
X011460Y001283D01*
X011533Y001210D01*
X011680Y001210D01*
X011754Y001283D01*
X011920Y001430D02*
X012214Y001430D01*
X012141Y001210D02*
X012141Y001650D01*
X011920Y001430D01*
X011754Y001577D02*
X011680Y001650D01*
X011533Y001650D01*
X011460Y001577D01*
X014880Y003830D02*
X015430Y003830D01*
X018030Y003830D02*
X018630Y003830D01*
X018330Y004130D02*
X018330Y003530D01*
X018280Y012839D02*
X018280Y013279D01*
X018500Y013279D01*
X018573Y013206D01*
X018573Y013059D01*
X018500Y012986D01*
X018280Y012986D01*
X018427Y012986D02*
X018573Y012839D01*
X018740Y012839D02*
X019034Y012839D01*
X019201Y012912D02*
X019201Y013206D01*
X019274Y013279D01*
X019421Y013279D01*
X019494Y013206D01*
X019661Y013279D02*
X019955Y013279D01*
X019808Y013279D02*
X019808Y012839D01*
X019494Y012912D02*
X019421Y012839D01*
X019274Y012839D01*
X019201Y012912D01*
X018887Y013059D02*
X018740Y013059D01*
X018740Y013279D02*
X018740Y012839D01*
X018740Y013279D02*
X019034Y013279D01*
X018113Y013279D02*
X018113Y012986D01*
X017966Y012839D01*
X017819Y012986D01*
X017819Y013279D01*
X016480Y016480D02*
X015930Y016480D01*
D14*
X015905Y016480D03*
X004405Y016480D03*
X004855Y003830D03*
X015455Y003830D03*
M02*
