%
M48
M72
T01C0.0236
T02C0.0315
T03C0.0320
T04C0.0400
T05C0.1260
%
T01
X12480Y7580
X12380Y13380
T02
X18230Y11867
X18230Y11080
X18193Y8180
X18980Y8180
X2130Y9393
X2130Y10180
T03
X14190Y8850
X14190Y11850
T04
X3130Y3830
X6130Y3830
X14180Y3830
X17180Y3830
X17180Y16480
X14180Y16480
X6130Y16480
X3130Y16480
T05
X10180Y19180
X10180Y1180
M30
