G75*
G70*
%OFA0B0*%
%FSLAX24Y24*%
%IPPOS*%
%LPD*%
%AMOC8*
5,1,8,0,0,1.08239X$1,22.5*
%
%ADD10C,0.0000*%
%ADD11C,0.0555*%
%ADD12OC8,0.0560*%
%ADD13OC8,0.1240*%
%ADD14C,0.1240*%
%ADD15R,0.1260X0.0600*%
%ADD16R,0.0600X0.1260*%
%ADD17C,0.0700*%
%ADD18C,0.0436*%
D10*
X009550Y001180D02*
X009552Y001230D01*
X009558Y001280D01*
X009568Y001329D01*
X009582Y001377D01*
X009599Y001424D01*
X009620Y001469D01*
X009645Y001513D01*
X009673Y001554D01*
X009705Y001593D01*
X009739Y001630D01*
X009776Y001664D01*
X009816Y001694D01*
X009858Y001721D01*
X009902Y001745D01*
X009948Y001766D01*
X009995Y001782D01*
X010043Y001795D01*
X010093Y001804D01*
X010142Y001809D01*
X010193Y001810D01*
X010243Y001807D01*
X010292Y001800D01*
X010341Y001789D01*
X010389Y001774D01*
X010435Y001756D01*
X010480Y001734D01*
X010523Y001708D01*
X010564Y001679D01*
X010603Y001647D01*
X010639Y001612D01*
X010671Y001574D01*
X010701Y001534D01*
X010728Y001491D01*
X010751Y001447D01*
X010770Y001401D01*
X010786Y001353D01*
X010798Y001304D01*
X010806Y001255D01*
X010810Y001205D01*
X010810Y001155D01*
X010806Y001105D01*
X010798Y001056D01*
X010786Y001007D01*
X010770Y000959D01*
X010751Y000913D01*
X010728Y000869D01*
X010701Y000826D01*
X010671Y000786D01*
X010639Y000748D01*
X010603Y000713D01*
X010564Y000681D01*
X010523Y000652D01*
X010480Y000626D01*
X010435Y000604D01*
X010389Y000586D01*
X010341Y000571D01*
X010292Y000560D01*
X010243Y000553D01*
X010193Y000550D01*
X010142Y000551D01*
X010093Y000556D01*
X010043Y000565D01*
X009995Y000578D01*
X009948Y000594D01*
X009902Y000615D01*
X009858Y000639D01*
X009816Y000666D01*
X009776Y000696D01*
X009739Y000730D01*
X009705Y000767D01*
X009673Y000806D01*
X009645Y000847D01*
X009620Y000891D01*
X009599Y000936D01*
X009582Y000983D01*
X009568Y001031D01*
X009558Y001080D01*
X009552Y001130D01*
X009550Y001180D01*
X009550Y019180D02*
X009552Y019230D01*
X009558Y019280D01*
X009568Y019329D01*
X009582Y019377D01*
X009599Y019424D01*
X009620Y019469D01*
X009645Y019513D01*
X009673Y019554D01*
X009705Y019593D01*
X009739Y019630D01*
X009776Y019664D01*
X009816Y019694D01*
X009858Y019721D01*
X009902Y019745D01*
X009948Y019766D01*
X009995Y019782D01*
X010043Y019795D01*
X010093Y019804D01*
X010142Y019809D01*
X010193Y019810D01*
X010243Y019807D01*
X010292Y019800D01*
X010341Y019789D01*
X010389Y019774D01*
X010435Y019756D01*
X010480Y019734D01*
X010523Y019708D01*
X010564Y019679D01*
X010603Y019647D01*
X010639Y019612D01*
X010671Y019574D01*
X010701Y019534D01*
X010728Y019491D01*
X010751Y019447D01*
X010770Y019401D01*
X010786Y019353D01*
X010798Y019304D01*
X010806Y019255D01*
X010810Y019205D01*
X010810Y019155D01*
X010806Y019105D01*
X010798Y019056D01*
X010786Y019007D01*
X010770Y018959D01*
X010751Y018913D01*
X010728Y018869D01*
X010701Y018826D01*
X010671Y018786D01*
X010639Y018748D01*
X010603Y018713D01*
X010564Y018681D01*
X010523Y018652D01*
X010480Y018626D01*
X010435Y018604D01*
X010389Y018586D01*
X010341Y018571D01*
X010292Y018560D01*
X010243Y018553D01*
X010193Y018550D01*
X010142Y018551D01*
X010093Y018556D01*
X010043Y018565D01*
X009995Y018578D01*
X009948Y018594D01*
X009902Y018615D01*
X009858Y018639D01*
X009816Y018666D01*
X009776Y018696D01*
X009739Y018730D01*
X009705Y018767D01*
X009673Y018806D01*
X009645Y018847D01*
X009620Y018891D01*
X009599Y018936D01*
X009582Y018983D01*
X009568Y019031D01*
X009558Y019080D01*
X009552Y019130D01*
X009550Y019180D01*
D11*
X018230Y011867D02*
X018785Y011867D01*
X018785Y011080D02*
X018230Y011080D01*
X018193Y008735D02*
X018193Y008180D01*
X018980Y008180D02*
X018980Y008735D01*
X002130Y009393D02*
X001575Y009393D01*
X001575Y010180D02*
X002130Y010180D01*
D12*
X014190Y008850D03*
X014190Y011850D03*
D13*
X017180Y016480D03*
X014180Y003830D03*
X006130Y003830D03*
X003130Y016480D03*
D14*
X003130Y003830D03*
X006130Y016480D03*
X014180Y016480D03*
X017180Y003830D03*
D15*
X008980Y007520D03*
X008980Y010040D03*
X008980Y011370D03*
X008980Y013890D03*
D16*
X008970Y016480D03*
X011490Y016480D03*
X011490Y003830D03*
X008970Y003830D03*
D17*
X006130Y003830D01*
X008970Y003830D02*
X008980Y003830D01*
X008980Y007520D01*
X008980Y010030D02*
X008980Y010040D01*
X008980Y010180D01*
X002130Y010180D01*
X002130Y009393D02*
X002130Y004630D01*
X002330Y004630D01*
X003130Y003830D01*
X008980Y010040D02*
X009220Y010040D01*
X011680Y007580D01*
X012480Y007580D01*
X014190Y008850D02*
X014860Y008180D01*
X018193Y008180D01*
X018980Y008180D02*
X018980Y007280D01*
X017780Y006080D01*
X016430Y006080D01*
X014180Y003830D01*
X011490Y003830D01*
X008980Y010180D02*
X008980Y011370D01*
X010990Y013380D01*
X012380Y013380D01*
X014190Y011850D02*
X014190Y016480D01*
X014180Y016480D01*
X011490Y016480D01*
X008980Y016480D02*
X008980Y013890D01*
X008980Y016480D02*
X008970Y016480D01*
X006130Y016480D01*
X014190Y011850D02*
X018230Y011867D01*
X018230Y011080D02*
X018980Y009680D01*
X018980Y008180D01*
D18*
X012480Y007580D03*
X012380Y013380D03*
M02*
